<?xml version="1.0" encoding="UTF-8" standalone="no"?>
<!-- Created with Inkscape (http://www.inkscape.org/) -->

<svg
   version="1.1"
   id="svg382"
   width="926.1358"
   height="305.43552"
   viewBox="0 0 926.1358 305.43552"
   sodipodi:docname="base.svg"
   inkscape:version="1.2.2 (b0a8486541, 2022-12-01)"
   inkscape:export-filename="icon-1024.png"
   inkscape:export-xdpi="96"
   inkscape:export-ydpi="96"
   xmlns:inkscape="http://www.inkscape.org/namespaces/inkscape"
   xmlns:sodipodi="http://sodipodi.sourceforge.net/DTD/sodipodi-0.dtd"
   xmlns="http://www.w3.org/2000/svg"
   xmlns:svg="http://www.w3.org/2000/svg">
  <defs
     id="defs386" />
  <sodipodi:namedview
     id="namedview384"
     pagecolor="#ffffff"
     bordercolor="#000000"
     borderopacity="0.25"
     inkscape:showpageshadow="2"
     inkscape:pageopacity="0.0"
     inkscape:pagecheckerboard="0"
     inkscape:deskcolor="#d1d1d1"
     showgrid="false"
     inkscape:zoom="0.54785157"
     inkscape:cx="376.01426"
     inkscape:cy="-417.99643"
     inkscape:window-width="2560"
     inkscape:window-height="1338"
     inkscape:window-x="0"
     inkscape:window-y="36"
     inkscape:window-maximized="1"
     inkscape:current-layer="g388" />
  <g
     inkscape:groupmode="layer"
     inkscape:label="Image"
     id="g388"
     transform="translate(-65.35843,-482.15597)">
    <path
       style="fill:#000000"
       d="m 1334.2174,-813.44557 c 10.0687,-1.3073 18.0199,-5.08087 23.9355,-11.35958 5.9776,-6.34447 7.5476,-9.58597 15.8279,-32.67843 3.638,-10.14607 8.3093,-23.1724 10.3805,-28.9474 10.9156,-30.43544 30.0175,-84.3051 30.0175,-84.6532 0,-0.2201 -6.6375,-0.2757 -14.75,-0.1235 l -14.75,0.2767 -6.8309,22.5 c -3.757,12.375 -9.7761,31.725 -13.3758,43 -6.3872,20.00576 -6.5776,20.42767 -7.8979,17.5 -0.7441,-1.65 -7.9524,-21.1125 -16.0185,-43.25 l -14.6657,-40.25 h -15.4626 c -11.9855,0 -15.3436,0.2811 -14.9336,1.25 9.2651,21.8945 46.685,116.9047 46.685,118.53468 0,3.59397 -3.6328,9.81728 -7.2274,12.38111 -2.9258,2.08682 -4.359,2.33118 -13.5226,2.30559 l -10.25,-0.0286 v 11.72636 11.72636 l 5.25,0.36728 c 2.8875,0.202 6.375,0.43662 7.75,0.52138 1.375,0.0848 5.8024,-0.27467 9.8386,-0.79873 z m 154.8944,-41.5653 c 9.4554,-1.95306 16.4484,-5.36171 22.0995,-10.77212 10.9179,-10.45291 12.9733,-26.66688 5.1222,-40.40647 -5.7908,-10.13394 -16.4603,-15.59093 -38.5841,-19.73417 -22.5188,-4.2172 -27.3706,-6.56263 -27.3706,-13.23132 0,-8.65793 5.0363,-12.50143 17.1531,-13.09063 7.6527,-0.3721 9.2903,-0.129 14.1662,2.1032 4.1569,1.9031 6.0873,3.5292 7.8469,6.61 l 2.3338,4.086 12.75,0.008 12.75,0.008 v -2.8403 c 0,-4.4312 -5.588,-14.5252 -10.5971,-19.1424 -16.1794,-14.9137 -51.4615,-17.1596 -70.2208,-4.47 -15.123,10.2299 -18.8733,33.93375 -7.3812,46.65405 7.0607,7.81545 14.626,11.1331 34.6991,15.21688 19.3219,3.93095 22.9549,5.14524 25.9134,8.66127 1.994,2.36973 2.5866,4.17094 2.5866,7.86237 0,8.94307 -4.9031,12.04212 -19.0685,12.05255 -13.5413,0.01 -23.3734,-4.7433 -25.948,-12.5444 l -1.1386,-3.45062 h -12.9225 -12.9224 v 2.96249 c 0,8.39981 8.4745,21.30112 17.4457,26.55854 5.1853,3.03883 14.3927,6.27518 21.0543,7.40052 8.3027,1.40256 22.1251,1.1733 30.233,-0.50144 z m 115.267,0.16399 c 19.506,-4.14479 34.2206,-16.70091 40.862,-34.86808 2.4268,-6.63838 2.638,-8.45679 2.638,-22.71602 0,-13.72861 -0.2788,-16.35138 -2.4396,-22.94973 -4.5906,-14.01777 -14.9573,-26.39417 -27.4063,-32.71907 -16.8513,-8.5616 -41.6441,-8.2051 -57.4283,0.8257 -18.601,10.6424 -29.4426,33.14606 -27.867,57.8431 0.972,15.23535 4.0447,24.12702 11.9464,34.56927 12.692,16.77292 36.8433,24.87049 59.6948,20.01483 z m -22.0462,-22.8833 c -8.4337,-2.38961 -14.7834,-8.98418 -18.5677,-19.28372 -2.7665,-7.52943 -2.5192,-26.96304 0.439,-34.49643 4.6274,-11.78435 12.7299,-17.91375 24.7151,-18.69675 9.193,-0.6006 15.72,2.0472 21.8481,8.86314 11.0815,12.32526 12.2529,39.0576 2.3416,53.43972 -6.2856,9.12111 -19.3037,13.42465 -30.7761,10.17404 z m 115.3597,-52.93039 c 5.0707,-10.32605 13.3057,-14.77041 27.368,-14.77041 h 7.3185 v -13.9062 -13.9061 l -4.9085,-0.6751 c -6.5756,-0.9044 -16.11,1.6051 -21.9993,5.7903 -2.5257,1.7949 -6.3922,6.0328 -8.5922,9.4177 -2.2,3.3849 -4.225,6.1835 -4.5,6.2191 -0.275,0.036 -0.3566,-4.2112 -0.1814,-9.4375 l 0.3186,-9.5022 h -13.0686 -13.0686 v 57.47178 57.47178 l 13.75,0.27822 13.75,0.27822 0.5,-34.5 0.5,-34.5 z m -489.3135,38.91109 c 0,-40.13719 0.3097,-42.34364 7.0137,-49.95975 5.0691,-5.75885 11.151,-8.24085 20.0147,-8.16825 8.2317,0.067 15.0901,3.1517 18.4961,8.31765 3.8506,5.84039 4.5666,14.48044 4.2579,51.37932 l -0.2824,33.75047 14.25,-4.7e-4 14.25,-4.7e-4 -0.02,-38.75 c -0.011,-21.3125 -0.4609,-41.8003 -1,-45.52844 -2.2456,-15.53006 -12.1639,-26.85566 -27.3598,-31.24176 -4.3491,-1.2553 -8.5376,-1.5986 -16.091,-1.319 -9.3961,0.3478 -10.8158,0.6766 -17.7785,4.1178 -5.2947,2.6167 -9.0961,5.4128 -12.659,9.3112 l -5.0919,5.5714 v -8.5806 -8.5806 h -13 -13 v 57.5 57.5 h 14 14 v -35.3185 z m 218,-165.61892 c 3.1911,-1.6754 6.8574,-4.9992 8.3418,-7.5626 0.8533,-1.4735 1.2898,-34.8912 1.6582,-126.9378 l 0.5,-124.9378 74.343,130.1878 74.343,130.1878 13.657,-0.01 c 17.3922,-0.01 24.8591,-1.2205 33.9655,-5.5082 8.8664,-4.1747 17.3069,-12.2875 21.9393,-21.0873 6.6486,-12.6298 6.3235,-3.2565 6.0236,-173.6453 l -0.2714,-154.2512 -2.3278,-6.5 c -3.1151,-8.6984 -7.0062,-14.5834 -14.1442,-21.3919 -6.6578,-6.3505 -17.4093,-11.9899 -25.9145,-13.5929 -3.1666,-0.5968 -24.9057,-1.0152 -52.75,-1.0152 h -47.3635 v 25.5 25.5 h 40.5398 c 38.0018,0 40.7755,0.1202 44.303,1.9198 2.0697,1.0559 4.3017,3.1021 4.9601,4.547 1.4845,3.2581 1.7645,278.5221 0.2817,276.9832 -0.5034,-0.5225 -42.5559,-73.85 -93.4499,-162.95 -57.1065,-99.9762 -93.9282,-163.4311 -96.1746,-165.738 -6.1571,-6.3227 -7.9522,-6.5329 -51.4601,-6.0264 -35.9523,0.4186 -38.7831,0.5813 -42.7772,2.4587 -2.3525,1.1057 -5.351,3.4269 -6.6634,5.1581 -2.6516,3.4977 -12.1988,24.0937 -35.0661,75.6476 -8.4166,18.975 -20.7921,46.65 -27.5011,61.5 -22.1521,49.0324 -22.3027,49.4817 -19.644,58.6238 0.8599,2.9569 5.2279,13.4762 9.7067,23.3762 41.2001,91.0696 62.922,139.4506 66.673,148.5 6.2257,15.0196 11.4597,20.4774 20.9381,21.8333 2.5633,0.3667 24.0495,0.6386 47.7472,0.6043 33.5306,-0.049 43.6413,-0.3535 45.5868,-1.375 z m -73.1659,-63.5626 c -2.8831,-6.6 -17.7893,-40.125 -33.1247,-74.5 -15.3355,-34.375 -27.9079,-62.95 -27.9387,-63.5 -0.052,-0.9274 8.8107,-20.5419 37.2765,-82.5 6.1909,-13.475 14.7683,-32.375 19.0609,-42 l 7.8047,-17.5 15.0436,-0.276 15.0436,-0.2761 v 146.2761 146.276 h -13.9605 -13.9604 l -5.2421,-12 z"
       id="path500"
       sodipodi:nodetypes="sssssscsssscscssscccsssssssssssscccssssssssscccsssssssssssssssssssssscccssssscccccccccsssssscccssssssccccccccccsssscccsssscsssscccssssssssssssssssscssssccccccccc" />
    <g
       id="g1070"
       transform="matrix(0.76335868,0,0,0.76335868,125.04749,150.23736)">
      <path
         id="path500-5"
         style="font-variation-settings:normal;opacity:1;vector-effect:none;fill:#004656;fill-opacity:1;stroke-width:1.33974;stroke-linecap:butt;stroke-linejoin:miter;stroke-miterlimit:4;stroke-dasharray:none;stroke-dashoffset:0;stroke-opacity:1;-inkscape-stroke:none;stop-color:#000000;stop-opacity:1"
         d="m 868.72325,600.97121 c -8.08537,0.14455 -16.27017,1.72303 -23.4923,5.46138 -9.10948,4.7769 -16.21286,12.90905 -20.46343,22.20938 -4.44856,9.63331 -5.9795,20.47715 -4.98569,31.00614 0.53687,6.7169 1.85892,13.48074 4.93767,19.52847 2.0738,4.07091 4.6783,7.87884 7.71621,11.29057 8.102,8.88684 19.71632,14.11089 31.56645,15.48218 11.77636,1.36989 24.08048,-0.97961 34.24413,-7.17355 7.65612,-4.65047 13.86595,-11.59385 17.71046,-19.67854 1.42628,-3.06976 2.68106,-6.2457 3.45012,-9.54813 0.8548,-4.13119 0.70575,-8.37809 0.76314,-12.57305 -0.0304,-4.89201 0.11774,-9.80293 -0.40233,-14.67534 -0.48471,-4.04892 -1.81891,-7.94833 -3.40015,-11.68885 -4.21841,-9.57917 -11.35276,-17.96483 -20.44225,-23.22841 -7.29842,-4.1708 -15.72511,-6.04627 -24.0723,-6.37695 -1.04327,-0.0367 -2.08595,-0.0424 -3.12973,-0.0353 z m -103.37882,0.122 c -8.18226,0.17934 -16.49636,1.78094 -23.71942,5.75965 -4.38991,2.37914 -8.09086,5.97092 -10.63206,10.26613 -4.311,7.25046 -5.70884,16.33193 -3.22021,24.4463 1.16286,3.84612 3.34976,7.35222 6.24815,10.13037 3.41838,3.50481 7.75874,5.98381 12.34404,7.6251 10.11967,3.64987 20.91092,4.74145 31.2291,7.66562 2.32835,0.70864 4.8385,1.53959 6.34538,3.58672 1.13535,1.2523 1.61272,2.94266 1.60529,4.60688 0.0675,2.28779 -0.11841,4.91055 -1.9098,6.56374 -1.93446,1.69284 -4.60007,2.10679 -7.06734,2.40316 -5.49665,0.49348 -11.16852,0.38663 -16.45847,-1.33875 -3.51882,-1.16611 -7.0513,-3.21904 -8.76379,-6.64617 -0.76112,-1.69631 -1.21342,-3.51256 -1.83579,-5.26217 -8.23999,0 -16.47999,0 -24.72007,0 0.0473,2.68673 -0.21935,5.42657 0.52117,8.04873 1.31243,4.96151 4.05594,9.44387 7.34063,13.34354 2.83425,3.33595 6.27389,6.21494 10.28341,8.02647 4.82533,2.25484 9.92125,3.96051 15.15018,4.98406 5.5056,0.95889 11.12809,1.02259 16.69884,0.8 5.28059,-0.21899 10.57122,-0.92566 15.60823,-2.57421 6.487,-2.03419 12.53073,-5.80532 16.73606,-11.20178 4.6096,-5.82411 6.70205,-13.50875 5.82606,-20.87189 -0.6476,-5.5667 -2.79415,-10.97963 -6.22215,-15.42058 -3.66601,-4.68196 -8.99471,-7.7196 -14.49228,-9.76401 -6.58542,-2.47918 -13.52151,-3.80665 -20.41507,-5.10329 -3.32368,-0.66875 -6.80832,-1.37739 -10.13267,-2.318 -2.38938,-0.72929 -4.90703,-1.42881 -6.85955,-3.06086 -1.332,-1.10072 -1.44814,-2.94814 -1.3104,-4.54404 0.10381,-2.25006 1.01669,-4.59373 2.96819,-5.86099 2.66367,-1.76444 5.94709,-2.14574 9.05893,-2.39012 2.87003,-0.0979 5.81155,-0.45235 8.62967,0.27459 2.09169,0.64196 4.10768,1.56234 5.97613,2.70017 1.72278,1.02637 2.87906,2.71777 3.79092,4.45957 0.63241,1.10775 1.26601,2.21481 1.89707,3.32334 8.06368,0.004 16.12728,0.009 24.19088,0.0149 -0.0625,-1.8644 0.14871,-3.74966 -0.15488,-5.59811 -0.74837,-3.50264 -2.5017,-6.69406 -4.36678,-9.71592 -1.95614,-3.0654 -4.30129,-5.93062 -7.25977,-8.08113 -6.16654,-4.62625 -13.65858,-7.16951 -21.20058,-8.43461 -3.86663,-0.63319 -7.78998,-0.90826 -11.70725,-0.84235 z m 217.54993,0.0346 c -4.8762,0.12792 -9.7061,1.45118 -14.0365,3.67932 -2.50201,1.25003 -4.65557,3.08151 -6.52157,5.14742 -1.7075,1.82311 -3.27946,3.88473 -4.58074,5.94989 -0.40014,0.82254 -0.19471,-0.29011 -0.22991,-0.62825 0.0953,-3.94839 0.25548,-7.9261 0.38158,-11.89662 -8.49767,0 -16.99543,0 -25.49318,0 0,33.45184 0,66.90368 0,100.35552 8.85384,0.17744 17.70759,0.35714 26.56135,0.53739 0.28797,-19.85219 0.57552,-39.70438 0.86383,-59.55657 1.7357,-3.41481 3.15016,-7.10209 5.85468,-9.90463 3.00486,-3.29061 7.33046,-5.0527 11.67496,-5.6726 1.3504,-0.21904 2.8882,-0.3381 4.1457,-0.39617 3.3255,-0.0892 6.6533,-0.022 9.9797,-0.0429 0,-8.87796 0,-17.75592 0,-26.63388 -2.557,-0.29741 -5.0928,-0.82186 -7.6678,-0.93235 -0.3107,-0.0116 -0.6214,-0.006 -0.9321,-0.006 z m -404.80469,0.63629 c -3.65099,0.14348 -7.34755,0.0967 -10.93574,0.87368 -3.17742,0.77758 -6.08762,2.33825 -8.97124,3.83695 -3.79877,2.03604 -7.18829,4.79219 -10.01063,8.04559 -0.39786,0.49223 -0.7726,0.92491 -0.62313,0.007 0,-3.7158 0,-7.43161 0,-11.14742 -8.44002,0 -16.88005,0 -25.32007,0 0,33.47877 0,66.95752 0,100.43629 9.00272,0 18.00544,0 27.00808,0 0.0186,-14.9866 -0.0414,-29.97346 0.0405,-44.95987 0.043,-4.35177 0.0847,-8.6498 0.33726,-12.97958 0.0355,-0.43514 0.0726,-1.12437 0.11057,-1.55455 0.0776,-0.92911 0.15226,-1.75411 0.27919,-2.7174 0.34562,-2.93186 1.11442,-5.9245 3.00499,-8.26356 0.75758,-0.98268 1.70294,-2.07462 2.46879,-2.87577 0.36875,-0.37206 0.59266,-0.60212 1.01466,-0.9753 2.88092,-2.66954 6.73151,-4.09361 10.61097,-4.41194 0.63427,-0.0609 1.57778,-0.11911 2.33983,-0.12662 2.0489,-0.0437 4.10717,0.12713 6.10593,0.58996 0.26536,0.0686 0.88519,0.21641 1.28753,0.34695 3.51611,1.03619 6.87178,3.25016 8.4845,6.63915 1.56824,3.32777 1.84415,7.06665 2.15153,10.68126 0.21514,2.98482 0.30916,6.02317 0.36605,8.95178 0.22104,12.72648 -0.0304,25.45474 -0.10179,38.18153 -0.038,4.49132 -0.0743,8.98265 -0.11293,13.47396 9.14882,0 18.29772,0 27.44654,0 -0.0312,-15.24527 0.0321,-30.4909 -0.076,-45.73588 -0.0964,-8.37053 -0.17184,-16.74582 -0.6087,-25.10662 -0.27438,-4.53269 -1.52967,-8.99841 -3.53476,-13.06659 -3.11083,-6.31843 -8.43361,-11.46108 -14.76253,-14.51909 -4.31007,-2.10815 -9.03319,-3.43478 -13.84325,-3.58125 -1.38416,-0.0601 -2.77035,-0.0665 -4.15561,-0.0424 z m 52.29186,1.62702 c -2.93629,0.0802 -5.90549,-0.0425 -8.80759,0.48134 -1.10792,0.19087 -2.21028,1.12321 -2.03683,2.33773 0.29852,1.19039 0.92215,2.29028 1.34871,3.44451 7.44292,18.08887 14.60293,36.279 21.79037,54.46499 5.04705,12.88562 10.13774,25.75492 15.01675,38.70546 0.39474,1.1601 0.94621,2.3882 1.25047,3.60515 -0.31996,2.3772 -1.60065,4.51077 -2.9995,6.41243 -1.45405,1.88648 -3.45349,3.63125 -5.93106,3.82439 -3.74627,0.3488 -7.51592,0.15521 -11.27266,0.1935 -1.98231,-0.006 -3.96462,-0.0113 -5.94701,-0.0171 0,7.68723 0,15.37446 0,23.06171 4.40594,0.29263 8.80944,0.65307 13.21893,0.87367 3.54177,-0.13638 7.08,-0.50511 10.57232,-1.11173 6.44581,-1.17002 12.70443,-3.94955 17.45194,-8.53294 2.80656,-2.72309 5.31401,-5.80377 7.02986,-9.33714 2.63515,-5.38352 4.57467,-11.06907 6.64931,-16.68282 11.62537,-32.36365 23.21099,-64.73996 34.60899,-97.18402 0.35263,-1.00595 0.68896,-2.01734 1.01433,-3.03245 -0.54607,-0.50594 -0.99508,-1.22362 -1.81427,-1.25267 -3.19193,-0.24447 -6.40218,-0.12686 -9.6018,-0.12222 -5.55589,0.0802 -11.11112,0.20308 -16.66676,0.30176 -6.4968,21.4358 -12.99714,42.87244 -19.89947,64.18198 -0.55341,1.69576 -1.10328,3.3934 -1.71991,5.06743 -7.28399,-19.35827 -14.28694,-38.82052 -21.38643,-58.24691 -1.39024,-3.81589 -2.78133,-7.63148 -4.17098,-11.44758 -5.89924,0.005 -11.79847,-0.0111 -17.69771,0.0116 z m 240.45992,21.20721 c 3.89811,-0.0381 7.86019,0.99852 11.02824,3.32295 3.44226,2.47328 6.20806,5.86673 7.91733,9.74653 2.09423,4.63723 3.0915,9.71498 3.32326,14.78094 0.0456,0.99858 0.0591,2.20863 0.027,3.28951 -0.191,6.18358 -1.49059,12.48637 -4.7151,17.83268 -3.05782,5.14671 -8.64791,8.40991 -14.45734,9.4329 -5.73205,1.01011 -12.02164,-0.0243 -16.67395,-3.67082 -4.11299,-3.18264 -6.80029,-7.87732 -8.44019,-12.74288 -1.06597,-3.84981 -1.23638,-7.8808 -1.29765,-11.85433 -0.009,-1.96726 0.0473,-3.81757 0.18635,-5.79688 0.31532,-3.84388 0.72129,-7.79447 2.4374,-11.30638 1.93141,-4.28907 5.00096,-8.21375 9.21439,-10.44137 3.49671,-1.88214 7.51163,-2.58328 11.4505,-2.59285 z" />
      <path
         id="path500-6-7"
         style="fill:#004656;fill-opacity:1;stroke-width:0.76003"
         d="m 178.79204,482.17545 c -10.55062,0.10812 -21.10239,0.18904 -31.65077,0.44218 -3.29391,0.1343 -6.62205,0.12932 -9.86742,0.77331 -2.93481,0.66304 -5.5074,2.44265 -7.60733,4.54464 -1.40868,1.51282 -2.21704,3.45608 -3.19135,5.25278 -4.07599,8.17979 -7.79656,16.53008 -11.57761,24.84786 -9.13155,20.29049 -18.086083,40.66103 -27.20801,60.95626 -5.40102,12.10802 -10.938497,24.15489 -16.269851,36.2937 -1.935553,4.54468 -3.979747,9.06729 -5.358263,13.82069 -0.717436,2.48703 -0.992555,5.15903 -0.312944,7.68748 0.826458,3.46159 2.316583,6.71121 3.646932,9.99799 3.543607,8.44208 7.44076,16.72893 11.180484,25.08487 12.454764,27.57368 24.930072,55.13393 37.259102,82.76556 2.57049,5.76055 5.12523,11.52893 7.59043,17.33503 1.87666,4.11893 3.99976,8.30339 7.43535,11.35352 2.97307,2.65568 6.99462,3.90504 10.93807,3.93233 9.69002,0.2943 19.38675,0.29907 29.0807,0.32784 10.4484,-0.0163 20.89886,0.013 31.34486,-0.2409 2.75282,-0.12592 5.53877,-0.10486 8.24941,-0.65421 1.43209,-0.41795 2.62885,-1.38102 3.80441,-2.26474 1.59766,-1.31807 3.15745,-2.78697 4.14768,-4.62749 0.40326,-1.39494 0.33293,-2.87855 0.44522,-4.31686 0.3487,-8.97593 0.39822,-17.9606 0.51012,-26.94191 0.33748,-37.03589 0.41433,-74.0735 0.5788,-111.11039 0.0587,-14.63398 0.11728,-29.26791 0.17592,-43.90189 36.87576,64.57504 73.7501,129.15085 110.62585,193.72588 6.13631,-0.0384 12.27594,0.088 18.40953,-0.13472 5.58143,-0.21378 11.24131,-0.85201 16.45717,-2.96558 3.75261,-1.44379 7.27329,-3.47827 10.37026,-6.04508 4.29358,-3.52385 7.89307,-7.90709 10.39372,-12.87424 1.18987,-2.09094 2.22537,-4.30087 2.67489,-6.68074 0.85336,-4.27495 0.99791,-8.65045 1.19333,-12.99389 0.41946,-12.04137 0.38816,-24.09297 0.4367,-36.14013 0.0303,-32.15997 -0.0809,-64.31989 -0.1225,-96.47981 -0.0566,-32.30068 -0.11431,-64.60137 -0.17008,-96.90201 -1.58437,-4.34206 -2.94349,-8.8198 -5.37742,-12.78653 -2.42369,-4.04869 -5.64764,-7.57492 -9.19823,-10.66156 -4.25986,-3.51914 -9.16666,-6.25276 -14.37509,-8.08886 -2.25813,-0.77169 -4.59392,-1.40552 -6.99486,-1.45355 -7.0434,-0.35828 -14.09905,-0.40181 -21.15019,-0.48809 -16.03966,-0.13626 -32.08015,-0.0545 -48.1202,-0.077 -2.04277,0 -4.08555,0 -6.12833,0 0,13.93383 0,27.86771 0,41.80159 16.89547,0.0172 33.79119,-0.0417 50.68649,0.0479 2.68396,0.0254 5.37525,0.0558 8.01023,0.15877 1.20008,0.0569 2.61739,0.12353 3.90032,0.29216 2.25096,0.20905 4.32251,1.50037 5.66013,3.29545 0.21477,0.90057 0.13988,1.88006 0.20758,2.81281 0.32056,11.05844 0.37016,22.12257 0.47136,33.1846 0.26828,38.04898 0.31824,76.0993 0.24105,114.14905 -0.0589,17.36636 -0.0803,34.73391 -0.36596,52.09839 -0.0194,0.92237 -0.0388,1.84476 -0.0582,2.76714 -13.98056,-24.19798 -27.84772,-48.49757 -41.74965,-72.75593 -24.99759,-43.69314 -49.90737,-87.4366 -75.11046,-131.01109 -7.1157,-12.25754 -14.19546,-24.53721 -21.50436,-36.68104 -1.11566,-1.772 -2.12056,-3.62572 -3.39882,-5.28788 -1.56242,-1.66412 -3.38536,-3.18154 -5.6071,-3.85124 -3.37526,-1.05384 -6.95176,-1.11259 -10.45505,-1.26207 -4.39745,-0.12324 -8.79749,-0.0903 -13.19604,-0.0703 z m 1.9446,152.48833 c 0,36.55115 0,73.10235 0,109.65353 -6.23509,0 -12.47023,0 -18.70532,0 -7.1779,-16.46939 -14.53693,-32.86604 -21.83592,-49.28724 -8.89761,-19.99814 -17.86253,-39.96668 -26.59275,-60.03879 -0.45237,-1.07208 -0.9227,-2.13665 -1.36071,-3.21471 1.87853,-4.67195 4.02844,-9.22995 6.07326,-13.83046 13.23607,-29.24761 26.87563,-58.33406 39.90453,-87.68366 0.72131,-1.61715 1.44258,-3.2343 2.16384,-4.8514 6.78437,-0.12411 13.56875,-0.24826 20.35307,-0.3726 0,36.54176 0,73.08352 0,109.62533 z" />
    </g>
    <path
       style="fill:#000000"
       d="M -1787.302,-584.20116 V -1096.201 h 512 511.99997 v 511.99984 512.000033 h -511.99997 -512 z m 389.8386,322.98543 c 10.0687,-1.3073 18.0199,-5.0808 23.9355,-11.3595 5.9775,-6.3445 7.5476,-9.586 15.8279,-32.67849 3.638,-10.146 8.3093,-23.1724 10.3805,-28.9474 10.9156,-30.4354 30.0175,-84.3051 30.0175,-84.6531 0,-0.2202 -6.6375,-0.2758 -14.75,-0.1236 l -14.75,0.2767 -6.8309,22.5 c -3.757,12.375 -9.7762,31.725 -13.3759,43 -6.3871,20.0058 -6.5775,20.4277 -7.8978,17.5 -0.7441,-1.65 -7.9525,-21.1125 -16.0186,-43.25 l -14.6656,-40.25 h -15.4626 c -11.9855,0 -15.3437,0.2811 -14.9337,1.25 9.2652,21.8945 46.6851,116.9047 46.6851,118.5347 0,3.594 -3.6328,9.8173 -7.2274,12.3811 -2.9258,2.0868 -4.359,2.3312 -13.5226,2.3056 l -10.25,-0.029 v 11.72639 11.7263 l 5.25,0.3673 c 2.8874,0.202 6.375,0.4366 7.75,0.5214 1.375,0.085 5.8023,-0.2747 9.8386,-0.7987 z m 154.8944,-41.56529 c 9.4554,-1.953 16.4484,-5.3617 22.0995,-10.7721 10.9179,-10.4529 12.9733,-26.6669 5.1222,-40.4064 -5.7908,-10.134 -16.4603,-15.591 -38.5841,-19.7342 -22.5188,-4.2172 -27.3706,-6.5626 -27.3706,-13.2313 0,-8.6579 5.0363,-12.5015 17.1531,-13.0907 7.6527,-0.3721 9.2903,-0.129 14.1662,2.1033 4.1569,1.9031 6.0873,3.5291 7.8469,6.61 l 2.3338,4.0859 12.75,0.01 12.75,0.01 v -2.8402 c 0,-4.4312 -5.588,-14.5252 -10.5971,-19.1425 -16.1794,-14.9137 -51.4615,-17.1596 -70.2208,-4.47 -15.123,10.23 -18.8733,33.9338 -7.3812,46.6541 7.0607,7.8154 14.626,11.1331 34.6991,15.2169 19.3219,3.9309 22.9549,5.1452 25.9134,8.6612 1.994,2.3698 2.5866,4.171 2.5866,7.8624 0,8.9431 -4.9031,12.0421 -19.0685,12.0526 -13.5413,0.01 -23.3734,-4.7433 -25.948,-12.5444 l -1.1386,-3.4507 h -12.9225 -12.9224 v 2.9625 c 0,8.3998 8.4745,21.3011 17.4457,26.5586 5.1853,3.0388 14.3927,6.2751 21.0543,7.4005 8.3027,1.4025 22.1251,1.1733 30.233,-0.5015 z m 115.267,0.164 c 19.506,-4.1448 34.2206,-16.7009 40.862,-34.868 2.4268,-6.6384 2.638,-8.4568 2.638,-22.7161 0,-13.7286 -0.2788,-16.3513 -2.4396,-22.9497 -4.5906,-14.0178 -14.9573,-26.3942 -27.4063,-32.7191 -16.8513,-8.5616 -41.6441,-8.2051 -57.4283,0.8257 -18.601,10.6424 -29.4426,33.1461 -27.867,57.8431 0.972,15.2354 4.0447,24.1271 11.9464,34.5693 12.692,16.7729 36.8433,24.8705 59.6948,20.0148 z m -22.0462,-22.8833 c -8.4337,-2.3896 -14.7834,-8.9841 -18.5677,-19.2837 -2.7665,-7.5294 -2.5192,-26.963 0.439,-34.4964 4.6274,-11.7843 12.7299,-17.9138 24.7151,-18.6968 9.193,-0.6006 15.72,2.0472 21.8481,8.8632 11.0815,12.3252 12.2529,39.0576 2.3416,53.4397 -6.2856,9.1211 -19.3037,13.4246 -30.7761,10.174 z m 115.3597,-52.9304 c 5.0707,-10.326 13.3057,-14.7704 27.368,-14.7704 h 7.31846 v -13.9061 -13.9062 l -4.90846,-0.6751 c -6.5756,-0.9044 -16.11,1.6051 -21.9993,5.7903 -2.5257,1.7949 -6.3922,6.0329 -8.5922,9.4178 -2.2,3.3848 -4.225,6.1834 -4.5,6.219 -0.275,0.036 -0.3566,-4.2112 -0.1814,-9.4374 l 0.3186,-9.5023 h -13.0686 -13.0686 v 57.4718 57.4718 l 13.75,0.2782 13.75,0.2782 0.5,-34.5 0.5,-34.5 z m -489.3136,38.9111 c 0,-40.1372 0.3098,-42.3436 7.0138,-49.9597 5.0691,-5.7588 11.151,-8.2409 20.0147,-8.1682 8.2317,0.068 15.0901,3.1516 18.496,8.3176 3.8506,5.8404 4.5667,14.4804 4.2579,51.3793 l -0.2824,33.7505 14.25,-5e-4 14.25,-5e-4 -0.02,-38.75 c -0.011,-21.3125 -0.4608,-41.8003 -0.9999,-45.5284 -2.2456,-15.53 -12.164,-26.8556 -27.3598,-31.2417 -4.3491,-1.2554 -8.5376,-1.5987 -16.0911,-1.3191 -9.396,0.3478 -10.8158,0.6766 -17.7785,4.1178 -5.2946,2.6168 -9.096,5.4128 -12.6589,9.3112 l -5.0919,5.5714 v -8.5806 -8.5806 h -13 -13 v 57.5 57.5 h 14 14 v -35.3185 z m 218.0001,-165.61885 c 3.1911,-1.6754 6.8574,-4.9993 8.3418,-7.5627 0.8533,-1.4734 1.2898,-34.89119 1.6582,-126.93775 l 0.5,-124.93781 74.343,130.18781 74.343,130.18775 13.657,-0.01 c 17.3922,-0.01 24.8591,-1.2205 33.9655,-5.5082 8.8664,-4.1747 17.3069,-12.28739 21.9393,-21.08729 6.6486,-12.6298 6.3235,-3.2564 6.0236,-173.64516 l -0.2714,-154.25121 -2.3278,-6.5 c -3.1151,-8.6985 -7.0062,-14.5834 -14.1442,-21.3919 -6.6578,-6.3505 -17.4093,-11.99 -25.9145,-13.5929 -3.1666,-0.5969 -24.9057,-1.0152 -52.75,-1.0152 h -47.3635 v 25.5 25.5 h 40.5398 c 38.0018,0 40.7755,0.1202 44.303,1.9198 2.0697,1.0558 4.3017,3.102 4.9601,4.547 1.4845,3.2581 1.7645,278.52197 0.2817,276.98307 -0.5034,-0.5225 -42.5559,-73.84996 -93.4499,-162.94997 -57.1065,-99.9761 -93.9282,-163.4311 -96.1746,-165.7379 -6.1571,-6.3227 -7.9522,-6.533 -51.4601,-6.0264 -35.9523,0.4185 -38.7831,0.5812 -42.7772,2.4586 -2.3525,1.1058 -5.351,3.4269 -6.6634,5.1581 -2.6517,3.4978 -12.1988,24.0938 -35.0661,75.6477 -8.4166,18.975 -20.7921,46.6499 -27.5011,61.4999 -22.1522,49.03241 -22.3027,49.48171 -19.644,58.62391 0.8599,2.9569 5.2279,13.4761 9.7067,23.3761 41.2,91.06966 62.9219,139.45056 66.673,148.49996 6.2257,15.01969 11.4597,20.47739 20.9381,21.83329 2.5632,0.3667 24.0495,0.6387 47.7472,0.6043 33.5306,-0.049 43.6413,-0.3535 45.5868,-1.3749 z m -73.1659,-63.56269 c -2.8832,-6.6 -17.7893,-40.125 -33.1248,-74.49996 -15.3354,-34.375 -27.9078,-62.95 -27.9386,-63.5 -0.052,-0.9273 8.8106,-20.54181 37.2765,-82.49991 6.1909,-13.475 14.7683,-32.375 19.0609,-42 l 7.8046,-17.5 15.0436,-0.2761 15.0437,-0.276 v 146.27601 146.27596 h -13.9605 -13.9605 l -5.242,-12 z"
       id="path500-3" />
    <path
       style="fill:#004656;fill-opacity:1"
       d="m -135.1184,-663.41497 v -511.99983 h 512 512.00001 v 511.99983 512.00004 h -512.00001 -512 z m 389.8386,322.98544 c 10.0687,-1.3073 18.0199,-5.0808 23.9355,-11.3595 5.9775,-6.3445 7.5476,-9.586 15.8279,-32.6785 3.638,-10.146 8.3093,-23.1724 10.3805,-28.9474 10.9156,-30.4354 30.0175,-84.3051 30.0175,-84.6531 0,-0.2202 -6.6375,-0.2758 -14.75,-0.1236 l -14.75,0.2767 -6.8309,22.5 c -3.757,12.375 -9.7762,31.725 -13.3759,43 -6.3871,20.0058 -6.5775,20.4277 -7.8978,17.5 -0.7441,-1.65 -7.9525,-21.1125 -16.0186,-43.25 l -14.6656,-40.25 h -15.4626 c -11.9855,0 -15.3437,0.2811 -14.9337,1.25 9.2652,21.8945 46.6851,116.9047 46.6851,118.5347 0,3.594 -3.6328,9.8173 -7.2274,12.3811 -2.9258,2.0868 -4.359,2.3312 -13.5226,2.3056 l -10.25,-0.029 v 11.7264 11.7263 l 5.25,0.3673 c 2.8874,0.202 6.375,0.4366 7.75,0.5214 1.375,0.085 5.8023,-0.2747 9.8386,-0.7987 z m 154.8944,-41.5653 c 9.4554,-1.953 16.4484,-5.3617 22.0995,-10.7721 10.9179,-10.4529 12.9733,-26.6669 5.1222,-40.4064 -5.7908,-10.134 -16.4603,-15.591 -38.5841,-19.7342 -22.5188,-4.2172 -27.3706,-6.5626 -27.3706,-13.2313 0,-8.6579 5.0363,-12.5015 17.1531,-13.0907 7.6527,-0.3721 9.2903,-0.129 14.1662,2.1033 4.1569,1.9031 6.0873,3.5291 7.8469,6.61 l 2.3338,4.0859 12.75,0.01 12.75,0.01 v -2.8402 c 0,-4.4312 -5.588,-14.5252 -10.5971,-19.1425 -16.1794,-14.9137 -51.4615,-17.1596 -70.2208,-4.47 -15.123,10.23 -18.8733,33.9338 -7.3812,46.6541 7.0607,7.8154 14.626,11.1331 34.6991,15.2169 19.3219,3.9309 22.9549,5.1452 25.9134,8.6612 1.994,2.3698 2.5866,4.171 2.5866,7.8624 0,8.9431 -4.9031,12.0421 -19.0685,12.0526 -13.5413,0.01 -23.3734,-4.7433 -25.948,-12.5444 l -1.1386,-3.4507 H 353.804 340.8816 v 2.9625 c 0,8.3998 8.4745,21.3011 17.4457,26.5586 5.1853,3.0388 14.3927,6.2751 21.0543,7.4005 8.3027,1.4025 22.1251,1.1733 30.233,-0.5015 z m 115.26701,0.164 c 19.506,-4.1448 34.2206,-16.7009 40.862,-34.868 2.4268,-6.6384 2.638,-8.4568 2.638,-22.7161 0,-13.7286 -0.2788,-16.3513 -2.4396,-22.9497 -4.5906,-14.0178 -14.9573,-26.3942 -27.4063,-32.7191 -16.8513,-8.5616 -41.6441,-8.2051 -57.4283,0.8257 -18.601,10.6424 -29.4426,33.1461 -27.867,57.8431 0.972,15.2354 4.0447,24.1271 11.9464,34.5693 12.692,16.7729 36.8433,24.8705 59.6948,20.0148 z m -22.0462,-22.8833 c -8.4337,-2.3896 -14.7834,-8.9841 -18.5677,-19.2837 -2.7665,-7.5294 -2.5192,-26.963 0.439,-34.4964 4.6274,-11.7843 12.7299,-17.9138 24.7151,-18.6968 9.193,-0.6006 15.72,2.0472 21.8481,8.8632 11.0815,12.3252 12.2529,39.0576 2.3416,53.4397 -6.2856,9.1211 -19.3037,13.4246 -30.7761,10.174 z m 115.3597,-52.9304 c 5.0707,-10.326 13.3057,-14.7704 27.368,-14.7704 h 7.3185 v -13.9061 -13.9062 l -4.9085,-0.6751 c -6.5756,-0.9044 -16.11,1.6051 -21.9993,5.7903 -2.5257,1.7949 -6.3922,6.0329 -8.5922,9.4178 -2.2,3.3848 -4.225,6.1834 -4.5,6.219 -0.275,0.036 -0.3566,-4.2112 -0.1814,-9.4374 l 0.3186,-9.5023 h -13.0686 -13.0686 v 57.4718 57.4718 l 13.75,0.2782 13.75,0.2782 0.5,-34.5 0.5,-34.5 z m -489.31361,38.9111 c 0,-40.1372 0.3098,-42.3436 7.0138,-49.9597 5.0691,-5.7588 11.151,-8.2409 20.0147,-8.1682 8.2317,0.068 15.0901,3.1516 18.496,8.3176 3.8506,5.8404 4.5667,14.4804 4.2579,51.3793 l -0.2824,33.7505 14.25,-5e-4 14.25,-5e-4 -0.02,-38.75 c -0.011,-21.3125 -0.4608,-41.8003 -0.9999,-45.5284 -2.2456,-15.53 -12.164,-26.8556 -27.3598,-31.2417 -4.3491,-1.2554 -8.5376,-1.5987 -16.0911,-1.3191 -9.396,0.3478 -10.8158,0.6766 -17.7785,4.1178 -5.2946,2.6168 -9.096,5.4128 -12.6589,9.3112 l -5.0919,5.5714 v -8.5806 -8.5806 h -13 -13 v 57.5 57.5 h 14 14 v -35.3185 z m 218.0001,-165.61884 c 3.1911,-1.6754 6.8574,-4.9993 8.3418,-7.5627 0.8533,-1.4734 1.2898,-34.8912 1.6582,-126.93776 l 0.5,-124.9378 74.343,130.1878 74.34301,130.18776 13.657,-0.01 c 17.3922,-0.01 24.8591,-1.2205 33.9655,-5.5082 8.8664,-4.1747 17.3069,-12.2874 21.9393,-21.0873 6.6486,-12.6298 6.3235,-3.2564 6.0236,-173.64516 l -0.2714,-154.2512 -2.3278,-6.5 c -3.1151,-8.6985 -7.0062,-14.5834 -14.1442,-21.3919 -6.6578,-6.3505 -17.4093,-11.99 -25.9145,-13.5929 -3.1666,-0.5969 -24.9057,-1.0152 -52.75,-1.0152 H 438.8816 v 25.5 25.5 h 40.53981 c 38.0018,0 40.7755,0.1202 44.303,1.9198 2.0697,1.0558 4.3017,3.102 4.9601,4.547 1.4845,3.2581 1.7645,278.52196 0.2817,276.98306 -0.5034,-0.5225 -42.5559,-73.84996 -93.44991,-162.94996 -57.1065,-99.9761 -93.9282,-163.4311 -96.1746,-165.7379 -6.1571,-6.3227 -7.9522,-6.533 -51.4601,-6.0264 -35.9523,0.4185 -38.7831,0.5812 -42.7772,2.4586 -2.3525,1.1058 -5.351,3.4269 -6.6634,5.1581 -2.6517,3.4978 -12.1988,24.0938 -35.0661,75.6477 -8.4166,18.975 -20.7921,46.6499 -27.5011,61.4999 -22.1522,49.0324 -22.3027,49.4817 -19.644,58.6239 0.8599,2.9569 5.2279,13.4761 9.7067,23.3761 41.2,91.06966 62.9219,139.45056 66.673,148.49996 6.2257,15.0197 11.4597,20.4774 20.9381,21.8333 2.5632,0.3667 24.0495,0.6387 47.7472,0.6043 33.5306,-0.049 43.6413,-0.3535 45.5868,-1.3749 z m -73.1659,-63.5627 c -2.8832,-6.6 -17.7893,-40.125 -33.1248,-74.49996 -15.3354,-34.375 -27.9078,-62.95 -27.9386,-63.5 -0.052,-0.9273 8.8106,-20.5418 37.2765,-82.4999 6.1909,-13.475 14.7683,-32.375 19.0609,-42 l 7.8046,-17.5 15.0436,-0.2761 15.0437,-0.276 v 146.276 l -10e-4,146.27596 h -13.9605 -13.9605 l -5.242,-12 z"
       id="path500-3-3" />
  </g>
</svg>
